<svg width="14" height="14" viewBox="0 0 14 14" fill="none" xmlns="http://www.w3.org/2000/svg">
<path d="M8.5 10.3705H6.5V13.3705H8.5V10.3705Z" stroke="#EB5757" stroke-miterlimit="10" stroke-linejoin="round"/>
<path d="M6 7.87048V8.87048H7V7.87048H6Z" fill="#EB5757"/>
<path d="M8 7.87048V8.87048H9V7.87048H8Z" fill="#EB5757"/>
<path d="M6 5.87048V6.87048H7V5.87048H6Z" fill="#EB5757"/>
<path d="M4 5.87048V6.87048H5V5.87048H4Z" fill="#EB5757"/>
<path d="M10 7.87048V8.87048H11V7.87048H10Z" fill="#EB5757"/>
<path d="M10 5.87048V6.87048H11V5.87048H10Z" fill="#EB5757"/>
<path d="M10 9.87048V10.8705H11V9.87048H10Z" fill="#EB5757"/>
<path d="M8 5.87048V6.87048H9V5.87048H8Z" fill="#EB5757"/>
<path d="M2.5 12.8705V13.3705H12.5V4.37048H2.5V5.87048" stroke="#EB5757" stroke-miterlimit="10" stroke-linejoin="round"/>
<path d="M3 8.87048H0V9.87048H3V8.87048Z" fill="#EB5757"/>
<path d="M2 11.8705L5 9.37048L2 6.87048V11.8705Z" fill="#EB5757"/>
<path d="M5 1.87048L4.5 0.870483L4 1.87048L3 2.37048L4 2.87048L4.5 3.87048L5 2.87048L6 2.37048L5 1.87048Z" fill="#EB5757"/>
<path d="M8 1.87048L7.5 0.870483L7 1.87048L6 2.37048L7 2.87048L7.5 3.87048L8 2.87048L9 2.37048L8 1.87048Z" fill="#EB5757"/>
<path d="M11 1.87048L10.5 0.870483L10 1.87048L9 2.37048L10 2.87048L10.5 3.87048L11 2.87048L12 2.37048L11 1.87048Z" fill="#EB5757"/>
</svg>
