<svg width="17" height="12" viewBox="0 0 17 12" fill="none" xmlns="http://www.w3.org/2000/svg">
<path d="M4.46153 5.63158C5.73603 5.63158 6.76922 4.59476 6.76922 3.31579C6.76922 2.03681 5.73603 1 4.46153 1C3.18703 1 2.15384 2.03681 2.15384 3.31579C2.15384 4.59476 3.18703 5.63158 4.46153 5.63158Z" stroke="#BDBDBD" stroke-miterlimit="10"/>
<path d="M12.5385 5.63158C13.813 5.63158 14.8462 4.59476 14.8462 3.31579C14.8462 2.03681 13.813 1 12.5385 1C11.264 1 10.2308 2.03681 10.2308 3.31579C10.2308 4.59476 11.264 5.63158 12.5385 5.63158Z" stroke="#BDBDBD" stroke-miterlimit="10"/>
<path d="M6.19232 12.0001C6.19232 10.7264 7.23078 9.68433 8.50001 9.68433C9.76924 9.68433 10.8077 10.7264 10.8077 12.0001" stroke="#BDBDBD" stroke-miterlimit="10"/>
<path d="M16 9.10528C16 7.19475 14.4423 5.63159 12.5385 5.63159C11.4423 5.63159 10.5193 6.09475 9.88464 6.90528" stroke="#BDBDBD" stroke-miterlimit="10"/>
<path d="M7.11538 6.90528C6.48077 6.09475 5.55769 5.63159 4.46154 5.63159C2.55769 5.63159 1 7.19475 1 9.10528" stroke="#BDBDBD" stroke-miterlimit="10"/>
<path d="M8.49996 9.68413C9.45584 9.68413 10.2307 8.90652 10.2307 7.94729C10.2307 6.98806 9.45584 6.21045 8.49996 6.21045C7.54409 6.21045 6.7692 6.98806 6.7692 7.94729C6.7692 8.90652 7.54409 9.68413 8.49996 9.68413Z" stroke="#BDBDBD" stroke-miterlimit="10"/>
</svg>
