<svg width="16" height="13" viewBox="0 0 16 13" fill="none" xmlns="http://www.w3.org/2000/svg">
<path d="M14 6H2C1.448 6 1 6.448 1 7V10H15V7C15 6.448 14.552 6 14 6Z" stroke="#BDBDBD" stroke-miterlimit="10"/>
<path d="M15 9V12" stroke="#BDBDBD" stroke-miterlimit="10" stroke-linecap="square"/>
<path d="M1 9V12" stroke="#BDBDBD" stroke-miterlimit="10" stroke-linecap="square"/>
<path d="M13 1H3C2.448 1 2 1.448 2 2V6H14V2C14 1.448 13.552 1 13 1Z" stroke="#BDBDBD" stroke-miterlimit="10"/>
<path d="M5 4H7C7.552 4 8 4.448 8 5V6H4V5C4 4.448 4.448 4 5 4Z" stroke="#BDBDBD" stroke-miterlimit="10" stroke-linejoin="round"/>
<path d="M9 4H11C11.552 4 12 4.448 12 5V6H8V5C8 4.448 8.448 4 9 4Z" stroke="#BDBDBD" stroke-miterlimit="10" stroke-linejoin="round"/>
</svg>
