<svg width="23" height="19" viewBox="0 0 23 19" fill="none" xmlns="http://www.w3.org/2000/svg">
<path fill-rule="evenodd" clip-rule="evenodd" d="M22.59 19H16.8395C16.613 19 16.4282 18.8145 16.4282 18.5863V16.9343C16.4282 16.7061 16.613 16.5212 16.8395 16.5212H22.59C22.8159 16.5212 23 16.7061 23 16.9343V18.5863C23 18.8145 22.8159 19 22.59 19ZM22.59 15.6945H16.8395C16.613 15.6945 16.4282 15.5103 16.4282 15.2822V13.6302C16.4282 13.402 16.613 13.2171 16.8395 13.2171H22.59C22.8159 13.2171 23 13.402 23 13.6302V15.2822C23 15.5103 22.8159 15.6945 22.59 15.6945ZM22.59 12.3911H16.8395C16.613 12.3911 16.4282 12.2062 16.4282 11.9774V10.3253C16.4282 10.0979 16.613 9.91302 16.8395 9.91302H22.59C22.8159 9.91302 23 10.0979 23 10.3253V11.9774C23 12.2062 22.8159 12.3911 22.59 12.3911ZM22.59 9.08698H16.8395C16.613 9.08698 16.4282 8.90214 16.4282 8.67329V7.0219C16.4282 6.79376 16.613 6.60892 16.8395 6.60892H22.59C22.8159 6.60892 23 6.79376 23 7.0219V8.67329C23 8.90214 22.8159 9.08698 22.59 9.08698ZM22.59 5.78287H16.8395C16.613 5.78287 16.4282 5.59803 16.4282 5.36918V3.71643C16.4282 3.48966 16.613 3.30411 16.8395 3.30411H22.59C22.8159 3.30411 23 3.48966 23 3.71643V5.36918C23 5.59803 22.8159 5.78287 22.59 5.78287ZM14.3756 19H8.6251C8.39787 19 8.21512 18.8145 8.21512 18.5863V16.9343C8.21512 16.7061 8.39787 16.5212 8.6251 16.5212H14.3756C14.6015 16.5212 14.7856 16.7061 14.7856 16.9343V18.5863C14.7856 18.8145 14.6015 19 14.3756 19ZM14.3756 15.6945H8.6251C8.39787 15.6945 8.21512 15.5103 8.21512 15.2822V13.6302C8.21512 13.402 8.39787 13.2171 8.6251 13.2171H14.3756C14.6015 13.2171 14.7856 13.402 14.7856 13.6302V15.2822C14.7856 15.5103 14.6015 15.6945 14.3756 15.6945ZM14.3756 12.3911H8.6251C8.39787 12.3911 8.21512 12.2062 8.21512 11.9774V10.3253C8.21512 10.0979 8.39787 9.91302 8.6251 9.91302H14.3756C14.6015 9.91302 14.7856 10.0979 14.7856 10.3253V11.9774C14.7856 12.2062 14.6015 12.3911 14.3756 12.3911ZM6.15978 19H0.410652C0.183438 19 0 18.8145 0 18.5863V16.9343C0 16.7061 0.183438 16.5212 0.410652 16.5212H6.15978C6.38768 16.5212 6.57115 16.7061 6.57115 16.9343V18.5863C6.57115 18.8145 6.38768 19 6.15978 19ZM6.15978 15.6945H0.410652C0.183438 15.6945 0 15.5103 0 15.2822V13.6302C0 13.402 0.183438 13.2171 0.410652 13.2171H6.15978C6.38768 13.2171 6.57115 13.402 6.57115 13.6302V15.2822C6.57115 15.5103 6.38768 15.6945 6.15978 15.6945ZM6.15978 12.3911H0.410652C0.183438 12.3911 0 12.2062 0 11.9774V10.3253C0 10.0979 0.183438 9.91302 0.410652 9.91302H6.15978C6.38768 9.91302 6.57115 10.0979 6.57115 10.3253V11.9774C6.57115 12.2062 6.38768 12.3911 6.15978 12.3911ZM6.15978 9.08698H0.410652C0.183438 9.08698 0 8.90214 0 8.67329V7.0219C0 6.79376 0.183438 6.60892 0.410652 6.60892H6.15978C6.38768 6.60892 6.57115 6.79376 6.57115 7.0219V8.67329C6.57115 8.90214 6.38768 9.08698 6.15978 9.08698ZM6.15978 5.78287H0.410652C0.183438 5.78287 0 5.59803 0 5.36918V3.71643C0 3.48966 0.183438 3.30411 0.410652 3.30411H6.15978C6.38768 3.30411 6.57115 3.48966 6.57115 3.71643V5.36918C6.57115 5.59803 6.38768 5.78287 6.15978 5.78287ZM6.15978 2.47808H0.410652C0.183438 2.47808 0 2.29391 0 2.06507V0.413701C0 0.185547 0.183438 0 0.410652 0H6.15978C6.38768 0 6.57115 0.185547 6.57115 0.413701V2.06507C6.57115 2.29391 6.38768 2.47808 6.15978 2.47808Z" fill="white"/>
</svg>
